# xmcd CD database file
#
# Track frame offsets:
#	150
#	13041
#	24879
#	38533
#	50405
#	62075
#	75168
#	89320
#	101316
#	116423
#	127597
#	141552
#	155825
#	167730
#
# Disc length: 2424 seconds
#
# Revision: 0
# Processed by: cddbd v1.5.2PL0 Copyright (c) Steve Scherf et al.
# Submitted via: CDex 1.51
#
DISCID=9f09760e
DTITLE=Celeste Mendoza - La Soberana
DYEAR=1900
DGENRE=Salsa
TTITLE0=Soy tan feliz
TTITLE1=Besos brujos
TTITLE2=Nena
TTITLE3=Que bien me siento contigo
TTITLE4=Caprichoso
TTITLE5=Ladron de gallinas
TTITLE6=Rumores falsos
TTITLE7=Santa Cecilia
TTITLE8=Echale salsita
TTITLE9=Cuanto te extrano como pienso en ti
TTITLE10=Seguire si sonar
TTITLE11=Pero no voy a llorar
TTITLE12=Quimera fugaz
TTITLE13=Sobre una timba una rumba
EXTD=
EXTT0=
EXTT1=
EXTT2=
EXTT3=
EXTT4=
EXTT5=
EXTT6=
EXTT7=
EXTT8=
EXTT9=
EXTT10=
EXTT11=
EXTT12=
EXTT13=
PLAYORDER=
